<?xml version="1.0" encoding="UTF-8"?>
<svg id="Layer_2" data-name="Layer 2" xmlns="http://www.w3.org/2000/svg" viewBox="0 0 76.31 78.61">
  <defs>
    <style>
      .cls-1 {
        fill: #d7e8f9;
      }

      .cls-1, .cls-2, .cls-3, .cls-4, .cls-5, .cls-6, .cls-7 {
        stroke-width: 0px;
      }

      .cls-2 {
        fill: #b7d4fc;
      }

      .cls-3 {
        fill: #0068ff;
      }

      .cls-4 {
        fill: #abcdfc;
      }

      .cls-5 {
        fill: #c0dcfc;
      }

      .cls-6 {
        fill: #95c1fd;
      }

      .cls-7 {
        fill: #539eff;
      }
    </style>
  </defs>
  <g id="Layer_1-2" data-name="Layer 1">
    <g>
      <g>
        <path class="cls-7" d="m76.3,53.92v-.12c0,.09,0,.17-.01.25,0,.02,0,.03,0,.05,0,.03,0,.06-.01.1,0,.1-.02.19-.04.29-.02.11-.05.23-.09.34-.04.14-.09.26-.16.39-.03.06-.06.12-.1.18-.09.15-.19.29-.31.41-.04.04-.08.08-.12.11-.04.03-.08.06-.12.1-.04.03-.09.06-.13.09l-18.06,10.73-17.03,10.11c-1.26.75-2.68.75-3.95,0l-17.01-10.11h0L1.1,56.12c-.73-.43-1.1-1.37-1.1-2.32s.34-1.83,1.03-2.29l7.02-4.7h0l11.11,6.6h0l17.01,10.12c1.27.75,2.69.75,3.95,0l17.03-10.12,11.12-6.6,7.02,4.7c.68.46,1.02,1.37,1.02,2.29,0,.04,0,.08,0,.12Z"/>
        <path class="cls-7" d="m75.21,56.12s.09-.05.13-.09c-.04.04-.08.06-.12.09l-18.07,10.73,18.06-10.73Z"/>
        <path class="cls-7" d="m76.3,53.8v.12s0,.09-.01.14c0-.09.01-.17.01-.25Z"/>
      </g>
      <path class="cls-6" d="m68.26,46.82l-11.12,6.6-17.03,10.12c-1.26.75-2.68.75-3.95,0l-17.01-10.12h0l-11.11-6.6,11.11-7.43h0l17.01,10.12c1.27.75,2.69.75,3.95,0l17.03-10.12,11.12,7.43Z"/>
      <path class="cls-3" d="m76.3,53.8v22.97c0,1.35-.99,2.23-1.84,1.66l-17.31-11.58,18.06-10.73s.09-.05.13-.09c.04-.03.09-.06.12-.1.04-.04.08-.08.12-.11.12-.12.23-.26.31-.41.04-.06.07-.12.1-.18.06-.12.12-.25.16-.39.04-.11.06-.22.09-.34.02-.1.04-.19.04-.29,0-.04.01-.07.01-.1,0-.02,0-.04,0-.05,0-.09.01-.17.01-.25Z"/>
      <path class="cls-3" d="m19.16,66.85L1.84,78.43c-.85.57-1.84-.31-1.84-1.66v-22.97c0,.95.37,1.89,1.1,2.32l18.06,10.73Z"/>
      <path class="cls-1" d="m76.31,26.34c0,.94-.37,1.89-1.09,2.32l-7.43,4.41-27.45-18.35c-1.38-.92-2.97-.92-4.36,0l-27.45,18.35-7.43-4.41c-.73-.43-1.1-1.37-1.1-2.32s.34-1.83,1.03-2.28L35.98.69c1.38-.92,2.97-.92,4.36,0l34.95,23.36c.68.45,1.02,1.37,1.02,2.28Z"/>
      <path class="cls-5" d="m67.79,33.07l-10.64,6.31-16.81-11.23c-1.38-.92-2.97-.92-4.36,0l-16.81,11.23h0l-10.63-6.31,27.45-18.35c1.38-.92,2.97-.92,4.36,0l27.45,18.35Z"/>
      <path class="cls-4" d="m57.15,39.39l-17.03,10.12c-1.26.75-2.68.75-3.95,0l-17.01-10.12,16.81-11.23c1.38-.92,2.97-.92,4.36,0l16.81,11.23Z"/>
      <path class="cls-2" d="m19.16,39.39l-11.11,7.43h0l-7.02,4.7c-.69.46-1.03,1.37-1.03,2.29v-27.47c0,.95.37,1.89,1.1,2.32l7.43,4.41,10.63,6.31Z"/>
      <path class="cls-2" d="m76.31,26.34v27.47c0-.91-.34-1.83-1.02-2.29l-7.02-4.7-11.12-7.43,10.64-6.31,7.43-4.41c.72-.43,1.09-1.38,1.09-2.32Z"/>
    </g>
  </g>
</svg>